<svg width="97" height="25" viewBox="0 0 97 25" fill="none" xmlns="http://www.w3.org/2000/svg">
<path d="M3.936 20.216C3.344 20.216 2.816 20.056 2.352 19.736C1.904 19.416 1.552 19.008 1.296 18.512C1.056 18 0.936 17.472 0.936 16.928C0.936 15.856 1.184 14.976 1.68 14.288C2.192 13.584 2.816 13.04 3.552 12.656C4.304 12.272 5.296 11.848 6.528 11.384V10.184C6.528 9.544 6.448 9.08 6.288 8.792C6.144 8.488 5.856 8.336 5.424 8.336C4.688 8.336 4.304 8.848 4.272 9.872L4.224 10.712L1.128 10.592C1.176 8.992 1.568 7.816 2.304 7.064C3.056 6.296 4.184 5.912 5.688 5.912C7.048 5.912 8.056 6.288 8.712 7.04C9.368 7.776 9.696 8.824 9.696 10.184V16.592C9.696 17.584 9.776 18.72 9.936 20H7.008C6.848 19.136 6.736 18.472 6.672 18.008C6.48 18.632 6.152 19.16 5.688 19.592C5.24 20.008 4.656 20.216 3.936 20.216ZM5.136 17.792C5.408 17.792 5.664 17.696 5.904 17.504C6.16 17.312 6.368 17.104 6.528 16.88V12.992C5.68 13.488 5.048 13.968 4.632 14.432C4.216 14.88 4.008 15.448 4.008 16.136C4.008 16.648 4.104 17.056 4.296 17.36C4.504 17.648 4.784 17.792 5.136 17.792ZM15.2196 20.216C14.0996 20.216 13.2596 19.824 12.6996 19.04C12.1556 18.24 11.8836 16.984 11.8836 15.272V11.024C11.8836 9.456 12.1396 8.216 12.6516 7.304C13.1796 6.376 14.0276 5.912 15.1956 5.912C16.0916 5.912 16.9236 6.28 17.6916 7.016V0.559999H20.9796V20H17.6916V19.016C16.9236 19.816 16.0996 20.216 15.2196 20.216ZM16.3956 17.96C16.8116 17.96 17.2436 17.808 17.6916 17.504V8.6C17.2756 8.296 16.8436 8.144 16.3956 8.144C15.5636 8.144 15.1476 8.872 15.1476 10.328V15.512C15.1476 16.296 15.2356 16.904 15.4116 17.336C15.5876 17.752 15.9156 17.96 16.3956 17.96ZM23.4668 6.128H26.6108V7.352C27.5388 6.376 28.6268 5.888 29.8748 5.888C30.4348 5.888 30.9148 6.032 31.3148 6.32C31.7148 6.592 32.0108 7.008 32.2028 7.568C33.1628 6.448 34.3308 5.888 35.7068 5.888C36.4748 5.888 37.0908 6.168 37.5548 6.728C38.0348 7.288 38.2748 8.096 38.2748 9.152V20H35.1548V9.464C35.1548 8.952 35.0668 8.592 34.8907 8.384C34.7308 8.176 34.4828 8.072 34.1468 8.072C33.8908 8.072 33.6028 8.144 33.2828 8.288C32.9788 8.432 32.6988 8.632 32.4428 8.888V9.152V20H29.3468V9.464C29.3468 8.952 29.2588 8.592 29.0828 8.384C28.9068 8.176 28.6508 8.072 28.3148 8.072C28.0588 8.072 27.7788 8.144 27.4748 8.288C27.1708 8.432 26.8828 8.632 26.6108 8.888V20H23.4668V6.128ZM40.7893 1.208H44.0533V3.92H40.7893V1.208ZM40.7893 6.128H44.0533V20H40.7893V6.128ZM46.6464 6.128H49.9104V7.496C51.0144 6.44 52.1344 5.912 53.2704 5.912C54.0544 5.912 54.6384 6.2 55.0224 6.776C55.4224 7.352 55.6224 8.08 55.6224 8.96V20H52.3584V9.608C52.3584 9.16 52.2864 8.832 52.1424 8.624C52.0144 8.416 51.7744 8.312 51.4224 8.312C51.0384 8.312 50.5344 8.536 49.9104 8.984V20H46.6464V6.128Z" fill="#282A5B"/>
<path d="M58.1336 6.128H59.4056V7.304C60.1416 6.376 61.0296 5.912 62.0696 5.912C63.2696 5.912 64.0936 6.392 64.5416 7.352C64.9896 8.296 65.2136 9.72 65.2136 11.624V14.288C65.2136 16.32 64.9656 17.816 64.4696 18.776C63.9896 19.736 63.1496 20.216 61.9496 20.216C60.9896 20.216 60.1416 19.76 59.4056 18.848V24.56H58.1336V6.128ZM61.8056 19.232C62.3816 19.232 62.8216 19.064 63.1256 18.728C63.4296 18.392 63.6376 17.872 63.7496 17.168C63.8776 16.464 63.9416 15.52 63.9416 14.336V11.624C63.9416 10.44 63.8856 9.52 63.7736 8.864C63.6616 8.192 63.4536 7.696 63.1496 7.376C62.8456 7.056 62.3976 6.896 61.8056 6.896C60.9896 6.896 60.1896 7.328 59.4056 8.192V17.984C59.7096 18.352 60.0696 18.656 60.4856 18.896C60.9016 19.12 61.3416 19.232 61.8056 19.232ZM70.071 20.216C69.239 20.216 68.567 19.936 68.055 19.376C67.543 18.816 67.287 18.088 67.287 17.192C67.287 16.376 67.431 15.712 67.719 15.2C68.007 14.672 68.535 14.16 69.303 13.664C70.087 13.152 71.303 12.504 72.951 11.72V10.736C72.951 9.728 72.887 8.944 72.759 8.384C72.647 7.824 72.447 7.432 72.159 7.208C71.887 6.984 71.511 6.872 71.031 6.872C70.375 6.872 69.839 7.056 69.423 7.424C69.023 7.792 68.823 8.48 68.823 9.488V9.848H67.575C67.575 8.504 67.847 7.512 68.391 6.872C68.935 6.232 69.831 5.912 71.079 5.912C72.231 5.912 73.039 6.28 73.503 7.016C73.983 7.736 74.223 8.928 74.223 10.592V17.576C74.223 17.912 74.231 18.376 74.247 18.968C74.263 19.544 74.279 19.888 74.295 20H73.191C73.175 19.728 73.135 19.4 73.071 19.016L72.975 18.152C72.767 18.744 72.399 19.24 71.871 19.64C71.343 20.024 70.743 20.216 70.071 20.216ZM70.383 19.16C70.943 19.16 71.439 18.976 71.871 18.608C72.319 18.24 72.679 17.776 72.951 17.216V12.656C71.607 13.36 70.663 13.888 70.119 14.24C69.575 14.576 69.175 14.952 68.919 15.368C68.679 15.768 68.559 16.312 68.559 17C68.559 17.768 68.735 18.32 69.087 18.656C69.439 18.992 69.871 19.16 70.383 19.16ZM76.8368 6.128H78.1088V7.616C78.5568 7.088 79.0608 6.672 79.6208 6.368C80.1808 6.064 80.7728 5.912 81.3968 5.912C82.0528 5.912 82.5808 6.16 82.9808 6.656C83.3808 7.136 83.5808 7.896 83.5808 8.936V20H82.3088V9.08C82.3088 8.28 82.1808 7.72 81.9248 7.4C81.6848 7.064 81.3248 6.896 80.8448 6.896C80.3968 6.896 79.9328 7.032 79.4528 7.304C78.9888 7.576 78.5408 7.952 78.1088 8.432V20H76.8368V6.128ZM89.4758 20.216C88.6918 20.216 88.0438 20.064 87.5318 19.76C87.0198 19.456 86.6278 18.912 86.3558 18.128C86.0838 17.344 85.9478 16.256 85.9478 14.864V11.168C85.9478 9.776 86.0838 8.696 86.3558 7.928C86.6438 7.16 87.0438 6.632 87.5558 6.344C88.0678 6.056 88.7158 5.912 89.4998 5.912C90.3638 5.912 91.0438 6.096 91.5398 6.464C92.0358 6.832 92.3878 7.416 92.5958 8.216C92.8038 9 92.9078 10.072 92.9078 11.432V12.752H87.2198V14.96C87.2198 16.064 87.2918 16.928 87.4358 17.552C87.5958 18.176 87.8358 18.616 88.1558 18.872C88.4758 19.128 88.9158 19.256 89.4758 19.256C90.1318 19.256 90.6598 19.072 91.0598 18.704C91.4598 18.32 91.6598 17.536 91.6598 16.352V15.32H92.9078V16.232C92.9078 17.512 92.6438 18.496 92.1158 19.184C91.6038 19.872 90.7238 20.216 89.4758 20.216ZM91.6598 11.984V10.904C91.6598 9.96 91.6118 9.208 91.5158 8.648C91.4198 8.088 91.2118 7.656 90.8918 7.352C90.5878 7.032 90.1238 6.872 89.4998 6.872C88.9558 6.872 88.5158 6.984 88.1798 7.208C87.8598 7.432 87.6198 7.84 87.4598 8.432C87.2998 9.024 87.2198 9.856 87.2198 10.928V11.984H91.6598ZM95.5455 0.559999H96.8175V20H95.5455V0.559999Z" fill="#363567"/>
</svg>
