<?xml version="1.0" encoding="utf-8"?>
<!-- Generator: Adobe Illustrator 24.0.0, SVG Export Plug-In . SVG Version: 6.00 Build 0)  -->
<svg version="1.1" id="Layer_1" xmlns="http://www.w3.org/2000/svg" xmlns:xlink="http://www.w3.org/1999/xlink" x="0px" y="0px"
	 viewBox="0 0 45 43" style="enable-background:new 0 0 45 43;" xml:space="preserve">
<style type="text/css">
	.st0{fill:none;stroke:#FFFFFF;stroke-width:2;stroke-miterlimit:10;}
</style>
<g>
	<path d="M2.64,21.5c0,2.21-0.82,4.52-0.17,6.51c0.67,2.06,2.71,3.45,3.96,5.17c1.26,1.74,1.96,4.1,3.69,5.36
		c1.72,1.25,4.17,1.19,6.24,1.86c1.99,0.65,3.93,2.16,6.14,2.16s4.15-1.52,6.14-2.16c2.06-0.67,4.52-0.61,6.24-1.86
		c1.74-1.26,2.43-3.63,3.69-5.36c1.25-1.72,3.29-3.1,3.96-5.17c0.65-1.99-0.17-4.3-0.17-6.51s0.82-4.52,0.17-6.51
		c-0.67-2.06-2.71-3.45-3.96-5.17c-1.26-1.74-1.96-4.1-3.69-5.36c-1.72-1.25-4.17-1.19-6.24-1.86c-1.99-0.65-3.93-2.16-6.14-2.16
		s-4.15,1.52-6.14,2.16c-2.06,0.67-4.52,0.61-6.24,1.86C8.39,5.73,7.69,8.09,6.43,9.83c-1.25,1.72-3.29,3.1-3.96,5.17
		C1.82,16.98,2.64,19.29,2.64,21.5z"/>
</g>
<g>
	<path class="st0" d="M19.99,21.59c-0.01,0.07-0.01,0.15-0.01,0.22v-0.2L19.99,21.59z"/>
	<path class="st0" d="M24.92,21.54v0.27c0-0.08,0-0.16-0.01-0.25L24.92,21.54z"/>
	<path class="st0" d="M31.5,8.73c0,0.34-0.08,0.69-0.26,1.02l-6.29,11.73l-0.03,0.06l-0.01,0.02c-0.01-0.07-0.02-0.15-0.03-0.22
		c0,0,0,0,0,0l-0.69-1.29v0l-1.69-3.14l2.42-4.52l2.51-4.68c0.56-1.05,1.87-1.45,2.93-0.89C31.09,7.21,31.5,7.96,31.5,8.73z"/>
	<path class="st0" d="M19.99,21.59c-0.01,0.07-0.01,0.15-0.01,0.22v-0.2L19.99,21.59z"/>
	<path class="st0" d="M24.92,21.81v12.46c0,1.19-0.97,2.16-2.16,2.16h-0.62c-1.19,0-2.16-0.97-2.16-2.16V21.81
		c0,1,0.59,1.86,1.45,2.25c0.31,0.14,0.65,0.22,1.02,0.22c0.42,0,0.81-0.1,1.16-0.29C24.39,23.58,24.92,22.76,24.92,21.81z"/>
	<path class="st0" d="M22.5,16.91l-1.59,2.98l-0.86,1.6l-0.06,0.11l-0.01,0.02v-0.26l-6.22-11.6c-0.18-0.33-0.26-0.68-0.26-1.02
		c0-0.77,0.41-1.52,1.14-1.91c1.05-0.56,2.36-0.17,2.93,0.89l2.41,4.5L22.5,16.91z"/>
	<path class="st0" d="M24.92,21.81c0,0.95-0.53,1.77-1.32,2.19c-0.35,0.18-0.74,0.29-1.16,0.29c-0.36,0-0.71-0.08-1.02-0.22
		c-0.86-0.39-1.45-1.25-1.45-2.25c0-0.07,0-0.15,0.01-0.22l0.06-0.11l0.86-1.6l1.59-2.98l1.69,3.14v0l0.69,1.29c0,0,0,0,0,0
		c0.01,0.07,0.02,0.15,0.03,0.22C24.92,21.65,24.92,21.73,24.92,21.81z"/>
	<path class="st0" d="M24.92,21.54v0.27c0-0.08,0-0.16-0.01-0.25L24.92,21.54z"/>
</g>
</svg>
