<?xml version="1.0" encoding="utf-8"?>
<!-- Generator: Adobe Illustrator 24.0.0, SVG Export Plug-In . SVG Version: 6.00 Build 0)  -->
<svg version="1.1" id="Layer_1" xmlns="http://www.w3.org/2000/svg" xmlns:xlink="http://www.w3.org/1999/xlink" x="0px" y="0px"
	 viewBox="0 0 1000 1000" style="enable-background:new 0 0 1000 1000;" xml:space="preserve">
<style type="text/css">
	.st0{fill:none;stroke:#FFFFFF;stroke-width:23;stroke-miterlimit:10;}
</style>
<g>
	<path d="M35,500c0,51.67-19.13,105.76-3.99,152.38c15.69,48.32,63.49,80.72,92.76,120.94c29.57,40.63,45.81,95.98,86.43,125.55
		c40.22,29.27,97.74,27.8,146.06,43.49C402.89,957.5,448.33,993,500,993c51.67,0,97.11-35.5,143.74-50.64
		c48.32-15.69,105.84-14.22,146.06-43.49c40.63-29.57,56.87-84.92,86.43-125.55c29.27-40.22,77.07-72.62,92.76-120.94
		C984.13,605.76,965,551.67,965,500c0-51.67,19.13-105.76,3.99-152.38c-15.69-48.32-63.49-80.72-92.76-120.94
		c-29.57-40.63-45.81-95.98-86.43-125.55c-40.22-29.27-97.74-27.8-146.06-43.49C597.11,42.5,551.67,7,500,7
		c-51.67,0-97.11,35.5-143.74,50.64c-48.32,15.69-105.84,14.22-146.06,43.49c-40.63,29.57-56.87,84.92-86.43,125.55
		C94.49,266.9,46.7,299.29,31.01,347.62C15.87,394.24,35,448.33,35,500z"/>
</g>
<g>
	<path class="st0" d="M441.23,502.11c-0.14,1.74-0.24,3.47-0.24,5.21v-4.73L441.23,502.11z"/>
	<path class="st0" d="M556.7,501v6.32c0-1.93-0.1-3.86-0.29-5.79L556.7,501z"/>
	<path class="st0" d="M710.7,201.05c0,8.05-1.93,16.25-6.03,23.87L557.42,499.61l-0.72,1.4l-0.29,0.53
		c-0.14-1.74-0.43-3.47-0.72-5.16c-0.05-0.05-0.05-0.05-0.05-0.1l-16.15-30.13v-0.05L500,392.47l56.7-105.74l58.77-109.64
		c13.16-24.64,43.88-33.94,68.51-20.73C701.01,165.47,710.7,182.97,710.7,201.05z"/>
	<path class="st0" d="M441.23,502.11c-0.14,1.74-0.24,3.47-0.24,5.21v-4.73L441.23,502.11z"/>
	<path class="st0" d="M556.7,507.32v291.7c0,27.96-22.66,50.63-50.63,50.63h-14.46c-27.96,0-50.63-22.66-50.63-50.63v-291.7
		c0,23.48,13.93,43.64,33.99,52.75c7.28,3.28,15.33,5.11,23.87,5.11c9.79,0,18.95-2.41,27.05-6.7
		C544.21,548.79,556.7,529.55,556.7,507.32z"/>
	<path class="st0" d="M500,392.47l-37.32,69.67l-20.11,37.46l-1.35,2.51l-0.24,0.48v-5.98L295.32,224.92
		c-4.1-7.62-6.03-15.81-6.03-23.87c0-18.08,9.69-35.58,26.71-44.7c24.69-13.21,55.35-3.91,68.56,20.73l56.41,105.25L500,392.47z"/>
	<path class="st0" d="M556.7,507.32c0,22.23-12.49,41.47-30.81,51.16c-8.1,4.29-17.26,6.7-27.05,6.7c-8.53,0-16.59-1.83-23.87-5.11
		c-20.06-9.11-33.99-29.27-33.99-52.75c0-1.74,0.1-3.47,0.24-5.21l1.35-2.51l20.11-37.46L500,392.47l39.49,73.63v0.05l16.15,30.13
		c0,0.05,0,0.05,0.05,0.1c0.29,1.69,0.58,3.42,0.72,5.16C556.61,503.46,556.7,505.39,556.7,507.32z"/>
	<path class="st0" d="M556.7,501v6.32c0-1.93-0.1-3.86-0.29-5.79L556.7,501z"/>
</g>
</svg>
